{
	"asset":{
		"generator":"Khronos glTF Blender I/O v5.0.21",
		"version":"2.0"
	},
	"extensionsUsed":[
		"KHR_materials_specular"
	],
	"scene":0,
	"scenes":[
		{
			"name":"Scene",
			"nodes":[
				14,
				15
			]
		}
	],
	"nodes":[
		{
			"name":"gabinete:pCube14",
			"rotation":[
				0,
				0.7071068286895752,
				0,
				0.7071067094802856
			],
			"scale":[
				2.2967655658721924,
				2.2967653274536133,
				2.2967655658721924
			],
			"translation":[
				-8.923237800598145,
				-0.635805606842041,
				-1.6103771924972534
			]
		},
		{
			"mesh":0,
			"name":"pCube94_corpo_do_teclado_0"
		},
		{
			"mesh":1,
			"name":"pCube94_teclado_0"
		},
		{
			"children":[
				1,
				2
			],
			"name":"pCube94",
			"translation":[
				0,
				0.17096126079559326,
				0
			]
		},
		{
			"mesh":2,
			"name":"pCylinder2_mouse_0"
		},
		{
			"mesh":3,
			"name":"pCylinder2_scroll_0"
		},
		{
			"children":[
				4,
				5
			],
			"name":"pCylinder2",
			"rotation":[
				0,
				1,
				0,
				6.123234262925839e-17
			],
			"translation":[
				11.76432991027832,
				0.18855619430541992,
				-0.4827122688293457
			]
		},
		{
			"mesh":4,
			"name":"tv:pCube1_tv:corpo2_tv_0"
		},
		{
			"mesh":5,
			"name":"tv:pCube1_tv:corpo_da_tv_0"
		},
		{
			"mesh":6,
			"name":"tv:pCube1_tv:pes_da_tv1_0"
		},
		{
			"mesh":7,
			"name":"tv:pCube1_tv:tela_da_tv_0",
			"translation":[
				0.001323699951171875,
				0.002344965934753418,
				-0.10167932510375977
			]
		},
		{
			"children":[
				7,
				8,
				9,
				10
			],
			"name":"tv:pCube1",
			"rotation":[
				0,
				1,
				0,
				6.123234262925839e-17
			],
			"scale":[
				9.222800254821777,
				4.631960868835449,
				0.26837611198425293
			],
			"translation":[
				-0.023163318634033203,
				3.7984695434570312,
				-4.8777570724487305
			]
		},
		{
			"children":[
				0,
				3,
				6,
				11
			],
			"name":"RootNode"
		},
		{
			"children":[
				12
			],
			"name":"685a58eb56344e1faaab04464fe79be7.fbx",
			"rotation":[
				0.70710688829422,
				0,
				0,
				0.7071066498756409
			],
			"scale":[
				0.009999999776482582,
				0.010000001639127731,
				0.010000001639127731
			]
		},
		{
			"children":[
				13
			],
			"name":"Sketchfab_model.001",
			"rotation":[
				-0.70710688829422,
				0,
				0,
				0.7071066498756409
			],
			"scale":[
				33.72017288208008,
				33.72018051147461,
				33.72018051147461
			],
			"translation":[
				2.0517520904541016,
				0.36860403418540955,
				1.0475773811340332
			]
		},
		{
			"mesh":8,
			"name":"LinkedinSS",
			"rotation":[
				0.7071068286895752,
				0,
				0,
				0.7071068286895752
			],
			"scale":[
				1.5754903554916382,
				1.1287959814071655,
				1.523689866065979
			],
			"translation":[
				2.0390236377716064,
				1.6517531871795654,
				-0.5484195351600647
			]
		}
	],
	"materials":[
		{
			"doubleSided":true,
			"extensions":{
				"KHR_materials_specular":{
					"specularFactor":0
				}
			},
			"name":"corpo_do_teclado",
			"pbrMetallicRoughness":{
				"baseColorFactor":[
					0.838798999786377,
					0.40724021196365356,
					0.40724021196365356,
					1
				],
				"roughnessFactor":0.7299069762229919
			}
		},
		{
			"doubleSided":true,
			"name":"teclado",
			"pbrMetallicRoughness":{
				"baseColorFactor":[
					0.15426279604434967,
					0.02576744370162487,
					0.03805919736623764,
					1
				],
				"metallicFactor":0.5836208462715149,
				"roughnessFactor":0.7542880177497864
			}
		},
		{
			"doubleSided":true,
			"name":"mouse",
			"pbrMetallicRoughness":{
				"baseColorFactor":[
					0.35811084508895874,
					0.16010455787181854,
					0.16010455787181854,
					1
				],
				"roughnessFactor":0.8030500411987305
			}
		},
		{
			"doubleSided":true,
			"name":"scroll",
			"pbrMetallicRoughness":{
				"baseColorFactor":[
					0.15292614698410034,
					0.026241222396492958,
					0.0382043719291687,
					1
				],
				"metallicFactor":0,
				"roughnessFactor":0.6000000238418579
			}
		},
		{
			"doubleSided":true,
			"name":"tvcorpo2_tv",
			"pbrMetallicRoughness":{
				"baseColorFactor":[
					0.838798999786377,
					0.40724021196365356,
					0.40724021196365356,
					1
				],
				"roughnessFactor":0.6000000238418579
			}
		},
		{
			"doubleSided":true,
			"name":"tvcorpo_da_tv",
			"pbrMetallicRoughness":{
				"baseColorFactor":[
					0.838798999786377,
					0.40724021196365356,
					0.40724021196365356,
					1
				],
				"roughnessFactor":0.6000000238418579
			}
		},
		{
			"doubleSided":true,
			"name":"tvpes_da_tv1",
			"pbrMetallicRoughness":{
				"baseColorFactor":[
					0.8373390436172485,
					0.40790078043937683,
					0.40790078043937683,
					1
				],
				"roughnessFactor":0.6000000238418579
			}
		},
		{
			"doubleSided":true,
			"name":"tvtela_da_tv",
			"pbrMetallicRoughness":{
				"baseColorFactor":[
					0.011011230759322643,
					0.011011230759322643,
					0.011011230759322643,
					1
				],
				"metallicFactor":0.284953236579895,
				"roughnessFactor":0.2179054319858551
			}
		},
		{
			"alphaMode":"BLEND",
			"doubleSided":true,
			"name":"LinkedinSS",
			"pbrMetallicRoughness":{
				"baseColorTexture":{
					"index":0
				},
				"metallicFactor":0,
				"roughnessFactor":0.5
			}
		}
	],
	"meshes":[
		{
			"name":"pCube94_corpo_do_teclado_0",
			"primitives":[
				{
					"attributes":{
						"POSITION":0,
						"NORMAL":1,
						"TEXCOORD_0":2
					},
					"indices":3,
					"material":0
				}
			]
		},
		{
			"name":"pCube94_teclado_0",
			"primitives":[
				{
					"attributes":{
						"POSITION":4,
						"NORMAL":5,
						"TEXCOORD_0":6
					},
					"indices":7,
					"material":1
				}
			]
		},
		{
			"name":"pCylinder2_mouse_0",
			"primitives":[
				{
					"attributes":{
						"POSITION":8,
						"NORMAL":9,
						"TEXCOORD_0":10
					},
					"indices":11,
					"material":2
				}
			]
		},
		{
			"name":"pCylinder2_scroll_0",
			"primitives":[
				{
					"attributes":{
						"POSITION":12,
						"NORMAL":13,
						"TEXCOORD_0":14
					},
					"indices":15,
					"material":3
				}
			]
		},
		{
			"name":"tv:pCube1_tv:corpo2_tv_0",
			"primitives":[
				{
					"attributes":{
						"POSITION":16,
						"NORMAL":17,
						"TEXCOORD_0":18
					},
					"indices":19,
					"material":4
				}
			]
		},
		{
			"name":"tv:pCube1_tv:corpo_da_tv_0",
			"primitives":[
				{
					"attributes":{
						"POSITION":20,
						"NORMAL":21,
						"TEXCOORD_0":22
					},
					"indices":23,
					"material":5
				}
			]
		},
		{
			"name":"tv:pCube1_tv:pes_da_tv1_0",
			"primitives":[
				{
					"attributes":{
						"POSITION":24,
						"NORMAL":25,
						"TEXCOORD_0":26
					},
					"indices":27,
					"material":6
				}
			]
		},
		{
			"name":"tv:pCube1_tv:tela_da_tv_0",
			"primitives":[
				{
					"attributes":{
						"POSITION":28,
						"NORMAL":29,
						"TEXCOORD_0":30
					},
					"indices":31,
					"material":7
				}
			]
		},
		{
			"name":"LinkedinSS",
			"primitives":[
				{
					"attributes":{
						"POSITION":32,
						"NORMAL":33,
						"TEXCOORD_0":34
					},
					"indices":35,
					"material":8
				}
			]
		}
	],
	"textures":[
		{
			"sampler":0,
			"source":0
		}
	],
	"images":[
		{
			"mimeType":"image/png",
			"name":"LinkedinSS",
			"uri":"LinkedinSS.png"
		}
	],
	"accessors":[
		{
			"bufferView":0,
			"componentType":5126,
			"count":252,
			"max":[
				3.781360149383545,
				0.16633199155330658,
				1.2874035835266113
			],
			"min":[
				-3.9201390743255615,
				-0.16633199155330658,
				-1.7958526611328125
			],
			"type":"VEC3"
		},
		{
			"bufferView":1,
			"componentType":5126,
			"count":252,
			"type":"VEC3"
		},
		{
			"bufferView":2,
			"componentType":5126,
			"count":252,
			"type":"VEC2"
		},
		{
			"bufferView":3,
			"componentType":5123,
			"count":1284,
			"type":"SCALAR"
		},
		{
			"bufferView":4,
			"componentType":5126,
			"count":22474,
			"max":[
				3.4831180572509766,
				0.27663108706474304,
				0.9773680567741394
			],
			"min":[
				-3.63433837890625,
				-0.002550549805164337,
				-1.5234763622283936
			],
			"type":"VEC3"
		},
		{
			"bufferView":5,
			"componentType":5126,
			"count":22474,
			"type":"VEC3"
		},
		{
			"bufferView":6,
			"componentType":5126,
			"count":22474,
			"type":"VEC2"
		},
		{
			"bufferView":7,
			"componentType":5123,
			"count":114720,
			"type":"SCALAR"
		},
		{
			"bufferView":8,
			"componentType":5126,
			"count":193,
			"max":[
				6.508172988891602,
				0.3086604177951813,
				0.7472712397575378
			],
			"min":[
				5.688979148864746,
				-0.23114356398582458,
				-0.4597654342651367
			],
			"type":"VEC3"
		},
		{
			"bufferView":9,
			"componentType":5126,
			"count":193,
			"type":"VEC3"
		},
		{
			"bufferView":10,
			"componentType":5126,
			"count":193,
			"type":"VEC2"
		},
		{
			"bufferView":11,
			"componentType":5123,
			"count":960,
			"type":"SCALAR"
		},
		{
			"bufferView":12,
			"componentType":5126,
			"count":84,
			"max":[
				6.118227958679199,
				0.3320973515510559,
				0.570814311504364
			],
			"min":[
				6.077180862426758,
				0.11236684024333954,
				0.35108375549316406
			],
			"type":"VEC3"
		},
		{
			"bufferView":13,
			"componentType":5126,
			"count":84,
			"type":"VEC3"
		},
		{
			"bufferView":14,
			"componentType":5126,
			"count":84,
			"type":"VEC2"
		},
		{
			"bufferView":15,
			"componentType":5123,
			"count":240,
			"type":"SCALAR"
		},
		{
			"bufferView":16,
			"componentType":5126,
			"count":36,
			"max":[
				0.020497113466262817,
				0.08117985725402832,
				1.8568904399871826
			],
			"min":[
				-0.020497113466262817,
				-0.7658252716064453,
				0.8467772603034973
			],
			"type":"VEC3"
		},
		{
			"bufferView":17,
			"componentType":5126,
			"count":36,
			"type":"VEC3"
		},
		{
			"bufferView":18,
			"componentType":5126,
			"count":36,
			"type":"VEC2"
		},
		{
			"bufferView":19,
			"componentType":5123,
			"count":72,
			"type":"SCALAR"
		},
		{
			"bufferView":20,
			"componentType":5126,
			"count":64,
			"max":[
				0.49999988079071045,
				0.5,
				0.8467773199081421
			],
			"min":[
				-0.49999988079071045,
				-0.5,
				-0.7187371253967285
			],
			"type":"VEC3"
		},
		{
			"bufferView":21,
			"componentType":5126,
			"count":64,
			"type":"VEC3"
		},
		{
			"bufferView":22,
			"componentType":5126,
			"count":64,
			"type":"VEC2"
		},
		{
			"bufferView":23,
			"componentType":5123,
			"count":120,
			"type":"SCALAR"
		},
		{
			"bufferView":24,
			"componentType":5126,
			"count":68,
			"max":[
				0.10248468071222305,
				-0.7658252716064453,
				3.638237953186035
			],
			"min":[
				-0.10248468071222305,
				-0.8170642256736755,
				-0.41870561242103577
			],
			"type":"VEC3"
		},
		{
			"bufferView":25,
			"componentType":5126,
			"count":68,
			"type":"VEC3"
		},
		{
			"bufferView":26,
			"componentType":5126,
			"count":68,
			"type":"VEC2"
		},
		{
			"bufferView":27,
			"componentType":5123,
			"count":102,
			"type":"SCALAR"
		},
		{
			"bufferView":28,
			"componentType":5126,
			"count":4,
			"max":[
				0.4910476803779602,
				0.491047739982605,
				-0.5624561309814453
			],
			"min":[
				-0.4910476803779602,
				-0.49104785919189453,
				-0.5624561309814453
			],
			"type":"VEC3"
		},
		{
			"bufferView":29,
			"componentType":5126,
			"count":4,
			"type":"VEC3"
		},
		{
			"bufferView":30,
			"componentType":5126,
			"count":4,
			"type":"VEC2"
		},
		{
			"bufferView":31,
			"componentType":5123,
			"count":6,
			"type":"SCALAR"
		},
		{
			"bufferView":32,
			"componentType":5126,
			"count":4,
			"max":[
				0.9627948999404907,
				0,
				0.5
			],
			"min":[
				-0.9627948999404907,
				0,
				-0.5
			],
			"type":"VEC3"
		},
		{
			"bufferView":33,
			"componentType":5126,
			"count":4,
			"type":"VEC3"
		},
		{
			"bufferView":34,
			"componentType":5126,
			"count":4,
			"type":"VEC2"
		},
		{
			"bufferView":35,
			"componentType":5123,
			"count":6,
			"type":"SCALAR"
		}
	],
	"bufferViews":[
		{
			"buffer":0,
			"byteLength":3024,
			"byteOffset":0,
			"target":34962
		},
		{
			"buffer":0,
			"byteLength":3024,
			"byteOffset":3024,
			"target":34962
		},
		{
			"buffer":0,
			"byteLength":2016,
			"byteOffset":6048,
			"target":34962
		},
		{
			"buffer":0,
			"byteLength":2568,
			"byteOffset":8064,
			"target":34963
		},
		{
			"buffer":0,
			"byteLength":269688,
			"byteOffset":10632,
			"target":34962
		},
		{
			"buffer":0,
			"byteLength":269688,
			"byteOffset":280320,
			"target":34962
		},
		{
			"buffer":0,
			"byteLength":179792,
			"byteOffset":550008,
			"target":34962
		},
		{
			"buffer":0,
			"byteLength":229440,
			"byteOffset":729800,
			"target":34963
		},
		{
			"buffer":0,
			"byteLength":2316,
			"byteOffset":959240,
			"target":34962
		},
		{
			"buffer":0,
			"byteLength":2316,
			"byteOffset":961556,
			"target":34962
		},
		{
			"buffer":0,
			"byteLength":1544,
			"byteOffset":963872,
			"target":34962
		},
		{
			"buffer":0,
			"byteLength":1920,
			"byteOffset":965416,
			"target":34963
		},
		{
			"buffer":0,
			"byteLength":1008,
			"byteOffset":967336,
			"target":34962
		},
		{
			"buffer":0,
			"byteLength":1008,
			"byteOffset":968344,
			"target":34962
		},
		{
			"buffer":0,
			"byteLength":672,
			"byteOffset":969352,
			"target":34962
		},
		{
			"buffer":0,
			"byteLength":480,
			"byteOffset":970024,
			"target":34963
		},
		{
			"buffer":0,
			"byteLength":432,
			"byteOffset":970504,
			"target":34962
		},
		{
			"buffer":0,
			"byteLength":432,
			"byteOffset":970936,
			"target":34962
		},
		{
			"buffer":0,
			"byteLength":288,
			"byteOffset":971368,
			"target":34962
		},
		{
			"buffer":0,
			"byteLength":144,
			"byteOffset":971656,
			"target":34963
		},
		{
			"buffer":0,
			"byteLength":768,
			"byteOffset":971800,
			"target":34962
		},
		{
			"buffer":0,
			"byteLength":768,
			"byteOffset":972568,
			"target":34962
		},
		{
			"buffer":0,
			"byteLength":512,
			"byteOffset":973336,
			"target":34962
		},
		{
			"buffer":0,
			"byteLength":240,
			"byteOffset":973848,
			"target":34963
		},
		{
			"buffer":0,
			"byteLength":816,
			"byteOffset":974088,
			"target":34962
		},
		{
			"buffer":0,
			"byteLength":816,
			"byteOffset":974904,
			"target":34962
		},
		{
			"buffer":0,
			"byteLength":544,
			"byteOffset":975720,
			"target":34962
		},
		{
			"buffer":0,
			"byteLength":204,
			"byteOffset":976264,
			"target":34963
		},
		{
			"buffer":0,
			"byteLength":48,
			"byteOffset":976468,
			"target":34962
		},
		{
			"buffer":0,
			"byteLength":48,
			"byteOffset":976516,
			"target":34962
		},
		{
			"buffer":0,
			"byteLength":32,
			"byteOffset":976564,
			"target":34962
		},
		{
			"buffer":0,
			"byteLength":12,
			"byteOffset":976596,
			"target":34963
		},
		{
			"buffer":0,
			"byteLength":48,
			"byteOffset":976608,
			"target":34962
		},
		{
			"buffer":0,
			"byteLength":48,
			"byteOffset":976656,
			"target":34962
		},
		{
			"buffer":0,
			"byteLength":32,
			"byteOffset":976704,
			"target":34962
		},
		{
			"buffer":0,
			"byteLength":12,
			"byteOffset":976736,
			"target":34963
		}
	],
	"samplers":[
		{
			"magFilter":9729,
			"minFilter":9987,
			"wrapS":33071,
			"wrapT":33071
		}
	],
	"buffers":[
		{
			"byteLength":976748,
			"uri":"editedComputer.bin"
		}
	]
}
